<svg width="40" height="26" viewBox="0 0 40 26" fill="none" xmlns="http://www.w3.org/2000/svg">
<path d="M38.4818 11.5258H1.51815C0.726073 11.5258 0 12.1959 0 13.067C0 13.8711 0.660066 14.6082 1.51815 14.6082H38.4818C39.2739 14.6082 40 13.9381 40 13.067C40 12.1959 39.2739 11.5258 38.4818 11.5258Z" fill="white"/>
<path d="M38.919 22.9175H20.7464C20.3569 22.9175 20 23.5876 20 24.4588C20 25.3299 20.3245 26 20.7464 26H38.919C39.3084 26 39.6654 25.3299 39.6654 24.4588C39.6654 23.5876 39.3084 22.9175 38.919 22.9175Z" fill="white"/>
<path d="M0.746377 3.08247H18.919C19.3085 3.08247 19.6654 2.41237 19.6654 1.54124C19.6654 0.670103 19.3409 0 18.919 0H0.746377C0.356963 0 4.1966e-08 0.670103 4.1966e-08 1.54124C4.1966e-08 2.41237 0.356963 3.08247 0.746377 3.08247Z" fill="white"/>
</svg>
