<svg width="38" height="28" viewBox="0 0 38 28" fill="none" xmlns="http://www.w3.org/2000/svg">
<path d="M33.7867 0H3.92C1.80444 0 0 1.74222 0 3.92V24.08C0 26.1956 1.74222 28 3.92 28H33.7867C35.9022 28 37.7067 26.2578 37.7067 24.08V3.85778C37.7067 1.74222 35.9022 0 33.7867 0ZM33.7867 2.8C33.8489 2.8 33.9111 2.8 33.9733 2.8L18.8533 12.5067L3.73333 2.8C3.79555 2.8 3.85778 2.8 3.92 2.8H33.7867ZM33.7867 25.0756H3.92C3.29778 25.0756 2.8 24.5778 2.8 23.9556V5.53778L17.36 14.8711C17.7956 15.1822 18.2933 15.3067 18.7911 15.3067C19.2889 15.3067 19.7867 15.1822 20.2222 14.8711L34.7822 5.53778V24.0178C34.9067 24.64 34.4089 25.0756 33.7867 25.0756Z" fill="white"/>
</svg>
