<svg width="40" height="40" viewBox="0 0 40 40" fill="none" xmlns="http://www.w3.org/2000/svg">
<path d="M37.7419 0H2.25806C0.967742 0 0 1.03226 0 2.25806V37.7419C0 39.0323 1.03226 40 2.25806 40H21.3548V24.4516H16.1935V18.4516H21.3548V14C21.3548 8.83871 24.4516 6 29.0968 6C30.6452 6 32.1935 6.06452 33.7419 6.25806V11.6129H30.6452C28.1935 11.6129 27.6774 12.7742 27.6774 14.5161V18.3226H33.5484L32.7097 24.3871H27.5484V39.7419H37.7419C39.0323 39.7419 40 38.7742 40 37.4839V2.25806C39.9355 0.967742 38.9032 0 37.7419 0Z" fill="#0E88EB"/>
</svg>
