<svg width="30" height="28" viewBox="0 0 30 28" fill="none" xmlns="http://www.w3.org/2000/svg">
<path d="M22.6811 28C18.7583 28 13.1889 25.1911 8.05534 20.3481C1.08146 13.6648 -1.87276 6.20661 1.22675 2.91339C1.37204 2.7681 1.56576 2.62281 1.75947 2.52595L5.68228 0.298184C6.69931 -0.282973 7.95848 0.00760571 8.6365 0.976201L11.4939 5.0443C11.8329 5.5286 11.9782 6.10975 11.8329 6.69091C11.736 7.22364 11.397 7.70794 10.9127 8.04694L9.21766 9.16083C10.5253 11.0496 14.0606 15.7473 19.6785 19.0889C19.7269 19.1374 19.7753 19.0889 19.7753 19.0889L20.9861 17.4423C21.6641 16.5221 22.9717 16.28 23.9887 16.9096L28.2505 19.6217C29.2676 20.2512 29.5581 21.5588 28.9286 22.5759L26.6039 26.305C26.4586 26.4987 26.3134 26.6924 26.1681 26.8377C25.2963 27.6126 24.0856 28 22.6811 28ZM6.79617 2.18694L2.82493 4.41471C0.984599 6.40033 3.2608 12.7446 9.60509 18.7499C16.0463 24.8521 22.6811 27.0314 24.812 25.1911L27.1367 21.462L22.8748 18.7499C22.8264 18.7499 22.778 18.7499 22.778 18.7499L21.5672 20.3965C20.8892 21.3167 19.5816 21.5588 18.613 20.9777C12.5593 17.3455 8.78179 12.3088 7.42576 10.3231C7.08675 9.83884 6.98989 9.25769 7.08675 8.72496C7.18361 8.1438 7.52261 7.65951 8.00691 7.36893L9.70195 6.25504L6.89303 2.23537C6.8446 2.23537 6.79617 2.18694 6.79617 2.18694Z" fill="white"/>
</svg>
