<svg width="40" height="40" viewBox="0 0 40 40" fill="none" xmlns="http://www.w3.org/2000/svg">
<path d="M34.1935 5.78778C30.4516 2.05788 25.3548 0 20.129 0C9.16129 0 0.193548 8.8746 0.193548 19.8071C0.193548 23.3441 1.09677 26.6881 2.83871 29.7749L0 40L10.6452 37.299C13.5484 38.8424 16.8387 39.7428 20.1935 39.7428C31.0968 39.6785 40 30.8039 40 19.8071C40 14.5338 37.9355 9.582 34.1935 5.78778ZM20.0645 36.3344C17.1613 36.3344 14.129 35.4984 11.6129 33.955L10.9677 33.5691L4.70968 35.1768L6.45161 29.1318L6.06452 28.4887C4.45161 25.8521 3.54839 22.7653 3.54839 19.6785C3.54839 10.6109 10.9032 3.27974 20.0645 3.27974C24.4516 3.27974 28.5806 5.01608 31.6774 8.1029C34.7742 11.1897 36.5161 15.3698 36.5161 19.8071C36.6452 29.0032 29.1613 36.3344 20.0645 36.3344ZM29.1613 23.9871C28.6452 23.7299 26.2581 22.508 25.6774 22.4437C25.2258 22.2508 24.8387 22.1865 24.5806 22.701C24.3226 23.2154 23.2903 24.2444 23.0323 24.6302C22.7742 24.8875 22.5161 25.0161 21.9355 24.6945C21.4194 24.4373 19.871 23.9871 17.9355 22.1865C16.4516 20.9003 15.4194 19.2926 15.2258 18.7138C14.9677 18.1994 15.1613 18.0064 15.4839 17.6849C15.7419 17.4277 16 17.1704 16.1935 16.7846C16.4516 16.5273 16.4516 16.2701 16.7097 15.9486C16.9677 15.6913 16.7742 15.3055 16.6452 15.0482C16.4516 14.791 15.5484 12.3473 15.0968 11.3183C14.7097 10.2894 14.2581 10.4823 14 10.4823C13.7419 10.4823 13.3548 10.4823 13.0968 10.4823C12.8387 10.4823 12.1935 10.5466 11.8065 11.1254C11.3548 11.6399 10.0645 12.8617 10.0645 15.3055C10.0645 17.7492 11.8065 20 12.129 20.4502C12.3871 20.7074 15.6774 25.7878 20.5806 27.9743C21.7419 28.4887 22.6452 28.8103 23.4194 29.0675C24.5806 29.4534 25.6774 29.3248 26.5161 29.2605C27.4839 29.1961 29.4194 28.1029 29.871 26.881C30.2581 25.7878 30.2581 24.6945 30.129 24.5016C30 24.373 29.6129 24.1801 29.1613 23.9871Z" fill="#24CC63"/>
</svg>
